<svg xmlns="http://www.w3.org/2000/svg" viewBox="0 0 37.16 63.57"><defs><style>.cls-1{fill:#fff;}</style></defs><title>dancing</title><g id="Capa_2" data-name="Capa 2"><g id="Capa_1-2" data-name="Capa 1"><path class="cls-1" d="M36.39,40.64a3.07,3.07,0,0,0-4.56-.47,53.31,53.31,0,0,1-6.55,4.45c-.7-2.35-1-5.49-1.57-8l0-14.52s7.89-1,10.16-1.39c2.43-.22,2.8-2.35,2.28-3.85-.12-.36-3.29-9.43-3.84-11.18a3,3,0,0,0-3.88-2.22c-1.74.49-2.26,2.17-1.73,3.89.74,2.41,2.71,8.22,2.71,8.22l-6.91.94-11.17-2.4A19.21,19.21,0,0,1,6,2.82,2.91,2.91,0,0,0,2.62,0,3.1,3.1,0,0,0,0,3.71C1,11.05,4.34,17.27,9.4,21.4V35.78c-3.47,8.87-3.51,18,1.61,26.16A3.51,3.51,0,0,0,15.83,63a3.51,3.51,0,0,0,1.1-4.83A21,21,0,0,1,14.2,41.89a2.17,2.17,0,0,1,2.2-1.71h0a2.17,2.17,0,0,1,2,1.7c.63,2.72.93,5.37,1.41,7a4.28,4.28,0,0,0,6.2,2.73,62.2,62.2,0,0,0,9.79-6.07A3.47,3.47,0,0,0,36.39,40.64Z"/><circle class="cls-1" cx="17.96" cy="8.32" r="5.36"/></g></g></svg>